<?xml version="1.0" standalone="no"?>
<!DOCTYPE svg PUBLIC "-//W3C//DTD SVG 20010904//EN"
 "http://www.w3.org/TR/2001/REC-SVG-20010904/DTD/svg10.dtd">
<svg version="1.0" xmlns="http://www.w3.org/2000/svg"
 width="50.000000pt" height="50.000000pt" viewBox="0 0 50.000000 50.000000"
 preserveAspectRatio="xMidYMid meet">
<metadata>
Created by potrace 1.16, written by Peter Selinger 2001-2019
</metadata>
<g transform="translate(0.000000,50.000000) scale(0.100000,-0.100000)"
fill="#000000" stroke="none">
<path d="M162 340 c-18 -11 -40 -36 -47 -54 -8 -18 -21 -36 -30 -39 -23 -10
-18 -34 8 -33 18 1 22 -4 22 -29 0 -25 4 -30 28 -33 22 -3 27 1 27 17 0 18 6
21 45 21 38 0 45 -3 45 -20 0 -16 7 -20 30 -20 27 0 30 3 30 30 0 17 4 30 8
30 5 0 17 15 27 34 12 23 28 36 47 40 36 7 38 39 3 62 -31 20 -63 10 -71 -22
-6 -25 -7 -25 -28 -6 -51 47 -93 53 -144 22z"/>
</g>
</svg>
